<?xml version="1.0" encoding="utf-8"?>
<svg version="1.1" width="1369px" height="299px" style="shape-rendering:geometricPrecision; text-rendering:geometricPrecision; image-rendering:optimizeQuality; fill-rule:evenodd; clip-rule:evenodd" viewBox="-156.756 52.749 1564.765 287.469" xmlns="http://www.w3.org/2000/svg">
  <defs/>
  <g transform="matrix(1, 0, 0, 1, -156.781939, 46.230557)">
    <path style="opacity:0.969" fill="#87d2a5" d="M 166.5,7.5 C 164.095,8.7682 161.428,9.43487 158.5,9.5C 160.838,7.96046 163.505,7.29379 166.5,7.5 Z"/>
  </g>
  <g transform="matrix(1, 0, 0, 1, -156.781939, 46.230557)">
    <path style="opacity:1" fill="#1fdb8e" d="M 207.5,15.5 C 208.469,16.3094 209.302,17.3094 210,18.5C 211.011,17.6634 212.178,17.33 213.5,17.5C 255.636,30.097 296.636,45.4303 336.5,63.5C 338.19,64.1031 339.69,65.1031 341,66.5C 341.671,65.7476 342.504,65.4142 343.5,65.5C 347.251,69.6686 347.251,73.8353 343.5,78C 330.183,82.2725 316.85,86.4392 303.5,90.5C 303.167,129.839 303.5,169.172 304.5,208.5C 315.544,216.986 319.044,227.986 315,241.5C 313.118,246.044 310.451,250.044 307,253.5C 306.699,256.507 306.865,259.507 307.5,262.5C 307.259,264.898 307.926,266.898 309.5,268.5C 310.634,271.37 311.3,274.37 311.5,277.5C 312.2,281.798 312.533,286.131 312.5,290.5C 311.942,291.79 310.942,292.623 309.5,293C 301.833,293.667 294.167,293.667 286.5,293C 283.113,290.998 281.613,288.165 282,284.5C 285.63,274.977 288.797,265.31 291.5,255.5C 288.839,251.995 286.339,248.328 284,244.5C 279.038,231.012 281.872,219.679 292.5,210.5C 293.499,172.67 293.832,134.67 293.5,96.5C 291.585,96.2155 289.919,96.5489 288.5,97.5C 249.379,109.596 210.212,121.596 171,133.5C 169.744,133.352 168.577,133.018 167.5,132.5C 165.485,131.076 163.152,130.41 160.5,130.5C 158.485,129.076 156.152,128.41 153.5,128.5C 153.167,128.5 152.833,128.5 152.5,128.5C 151.365,126.787 149.698,126.12 147.5,126.5C 147.167,126.5 146.833,126.5 146.5,126.5C 145.365,124.787 143.698,124.12 141.5,124.5C 125.027,119.565 108.694,114.231 92.5,108.5C 88.9302,105.14 84.5969,103.473 79.5,103.5C 66.0067,98.8916 52.6734,93.8916 39.5,88.5C 38.3646,86.7868 36.698,86.1201 34.5,86.5C 32.4214,86.0293 30.4214,85.3627 28.5,84.5C 24.9302,81.1399 20.5969,79.4733 15.5,79.5C 9.92078,78.5915 5.08744,76.2581 1,72.5C 0.183403,69.0357 0.516736,65.7024 2,62.5C 11.1986,58.1542 20.6986,54.4875 30.5,51.5C 33.716,51.6545 36.3826,50.6545 38.5,48.5C 42.4214,46.9706 46.4214,45.6373 50.5,44.5C 55.1646,43.9431 59.4979,42.6098 63.5,40.5C 76.6835,35.6597 90.0169,30.9931 103.5,26.5C 105.698,26.8799 107.365,26.2132 108.5,24.5C 110.701,23.4336 113.035,22.767 115.5,22.5C 120.915,21.8062 125.915,20.1395 130.5,17.5C 130.833,17.5 131.167,17.5 131.5,17.5C 135.162,17.2766 138.495,16.2766 141.5,14.5C 144.152,14.5905 146.485,13.9238 148.5,12.5C 152.162,12.2766 155.495,11.2766 158.5,9.5C 161.428,9.43487 164.095,8.7682 166.5,7.5C 180.882,6.40266 194.549,9.06933 207.5,15.5 Z"/>
  </g>
  <g transform="matrix(1, 0, 0, 1, -156.781939, 46.230557)">
    <path style="opacity:0.957" fill="#86d2a4" d="M 158.5,9.5 C 155.495,11.2766 152.162,12.2766 148.5,12.5C 151.505,10.7234 154.838,9.7234 158.5,9.5 Z"/>
  </g>
  <g transform="matrix(1, 0, 0, 1, -156.781939, 46.230557)">
    <path style="opacity:0.969" fill="#85d2a4" d="M 148.5,12.5 C 146.485,13.9238 144.152,14.5905 141.5,14.5C 143.515,13.0762 145.848,12.4095 148.5,12.5 Z"/>
  </g>
  <g transform="matrix(1, 0, 0, 1, -156.781939, 46.230557)">
    <path style="opacity:0.957" fill="#8cd2a7" d="M 141.5,14.5 C 138.495,16.2766 135.162,17.2766 131.5,17.5C 134.505,15.7234 137.838,14.7234 141.5,14.5 Z"/>
  </g>
  <g transform="matrix(1, 0, 0, 1, -156.781939, 46.230557)">
    <path style="opacity:1" fill="#83d5a3" d="M 207.5,15.5 C 209.786,15.595 211.786,16.2616 213.5,17.5C 212.178,17.33 211.011,17.6634 210,18.5C 209.302,17.3094 208.469,16.3094 207.5,15.5 Z"/>
  </g>
  <g transform="matrix(1, 0, 0, 1, -156.781939, 46.230557)">
    <path style="opacity:0.988" fill="#77d39d" d="M 130.5,17.5 C 125.915,20.1395 120.915,21.8062 115.5,22.5C 120.216,20.2613 125.216,18.5946 130.5,17.5 Z"/>
  </g>
  <g transform="matrix(1, 0, 0, 1, -156.781939, 46.230557)">
    <path style="opacity:0.969" fill="#99d3ac" d="M 108.5,24.5 C 107.365,26.2132 105.698,26.8799 103.5,26.5C 104.93,25.4625 106.597,24.7959 108.5,24.5 Z"/>
  </g>
  <g style="" transform="matrix(1.225508, 0, 0, 1.467401, -267.540959, 28.526928)">
    <path style="opacity:0.96" fill="#000000" d="M 1307.5,38.5 C 1323.61,36.5845 1338.94,39.0845 1353.5,46C 1358.6,48.9328 1362.93,52.7661 1366.5,57.5C 1361.16,62.6692 1355.66,67.6692 1350,72.5C 1333.94,58.4772 1316.77,56.9772 1298.5,68C 1286.06,80.5198 1283.23,95.0198 1290,111.5C 1302.21,128.934 1318.37,133.767 1338.5,126C 1340.46,115.088 1341.13,103.922 1340.5,92.5C 1348.5,92.5 1356.5,92.5 1364.5,92.5C 1364.67,107.837 1364.5,123.17 1364,138.5C 1335.89,156.739 1307.72,156.906 1279.5,139C 1261.48,122.087 1255.64,101.587 1262,77.5C 1269.93,55.9652 1285.1,42.9652 1307.5,38.5 Z"/>
  </g>
  <g style="" transform="matrix(1.225508, 0, 0, 1.467401, -267.540959, 28.526928)">
    <path style="opacity:0.939" fill="#000000" d="M 518.5,39.5 C 527.5,39.5 536.5,39.5 545.5,39.5C 545.5,69.1667 545.5,98.8333 545.5,128.5C 563.5,128.5 581.5,128.5 599.5,128.5C 599.5,135.833 599.5,143.167 599.5,150.5C 572.5,150.5 545.5,150.5 518.5,150.5C 518.5,113.5 518.5,76.5 518.5,39.5 Z"/>
  </g>
  <g style="" transform="matrix(1.225508, 0, 0, 1.467401, -267.540959, 28.526928)">
    <path style="opacity:0.946" fill="#000000" d="M 614.5,39.5 C 642.5,39.5 670.5,39.5 698.5,39.5C 698.5,46.8333 698.5,54.1667 698.5,61.5C 679.167,61.5 659.833,61.5 640.5,61.5C 640.5,68.8333 640.5,76.1667 640.5,83.5C 657.5,83.5 674.5,83.5 691.5,83.5C 691.5,90.5 691.5,97.5 691.5,104.5C 674.5,104.5 657.5,104.5 640.5,104.5C 640.5,112.5 640.5,120.5 640.5,128.5C 660.5,128.5 680.5,128.5 700.5,128.5C 700.5,135.833 700.5,143.167 700.5,150.5C 671.833,150.5 643.167,150.5 614.5,150.5C 614.5,113.5 614.5,76.5 614.5,39.5 Z"/>
  </g>
  <g style="" transform="matrix(1.225508, 0, 0, 1.467401, -267.540959, 28.526928)">
    <path style="opacity:0.958" fill="#000000" d="M 755.5,39.5 C 764.192,39.1686 772.859,39.502 781.5,40.5C 797.639,76.9171 813.973,113.25 830.5,149.5C 821.167,150.833 811.833,150.833 802.5,149.5C 798.902,142.034 795.902,134.368 793.5,126.5C 776.83,126.333 760.163,126.5 743.5,127C 739.972,134.584 736.639,142.251 733.5,150C 724.482,150.832 715.482,150.665 706.5,149.5C 722.848,112.807 739.181,76.1406 755.5,39.5 Z M 767.5,67.5 C 773.633,80.0413 779.299,92.8747 784.5,106C 773.5,106.667 762.5,106.667 751.5,106C 757.323,93.3621 762.657,80.5288 767.5,67.5 Z"/>
  </g>
  <g style="" transform="matrix(1.225508, 0, 0, 1.467401, -267.540959, 28.526928)">
    <path style="opacity:0.966" fill="#000000" d="M 842.5,39.5 C 862.862,39.1312 883.195,39.6312 903.5,41C 929.636,46.7602 940.803,62.9269 937,89.5C 934.077,101.256 927.243,109.923 916.5,115.5C 924.653,126.959 932.32,138.626 939.5,150.5C 930.161,150.666 920.827,150.5 911.5,150C 904.746,139.825 897.746,129.825 890.5,120C 883.174,119.5 875.841,119.334 868.5,119.5C 868.5,129.833 868.5,140.167 868.5,150.5C 859.833,150.5 851.167,150.5 842.5,150.5C 842.5,113.5 842.5,76.5 842.5,39.5 Z M 868.5,61.5 C 877.173,61.3336 885.84,61.5002 894.5,62C 911.281,66.9397 915.448,77.1064 907,92.5C 904.749,94.3773 902.249,95.8773 899.5,97C 889.232,98.3991 878.898,98.8991 868.5,98.5C 868.5,86.1667 868.5,73.8333 868.5,61.5 Z"/>
  </g>
  <g style="" transform="matrix(1.225508, 0, 0, 1.467401, -267.540959, 28.526928)">
    <path style="opacity:0.964" fill="#000000" d="M 958.5,39.5 C 965.841,39.3337 973.174,39.5003 980.5,40C 998,61.5 1015.5,83 1033,104.5C 1033.5,82.8359 1033.67,61.1692 1033.5,39.5C 1042.17,39.5 1050.83,39.5 1059.5,39.5C 1059.5,76.5 1059.5,113.5 1059.5,150.5C 1052.16,150.666 1044.83,150.5 1037.5,150C 1020,128.5 1002.5,107 985,85.5C 984.5,107.164 984.333,128.831 984.5,150.5C 975.833,150.5 967.167,150.5 958.5,150.5C 958.5,113.5 958.5,76.5 958.5,39.5 Z"/>
  </g>
  <g style="" transform="matrix(1.225508, 0, 0, 1.467401, -267.540959, 28.526928)">
    <path style="opacity:0.968" fill="#000000" d="M 1086.5,39.5 C 1095.17,39.5 1103.83,39.5 1112.5,39.5C 1112.5,76.5 1112.5,113.5 1112.5,150.5C 1103.83,150.5 1095.17,150.5 1086.5,150.5C 1086.5,113.5 1086.5,76.5 1086.5,39.5 Z"/>
  </g>
  <g style="" transform="matrix(1.225508, 0, 0, 1.467401, -267.540959, 28.526928)">
    <path style="opacity:0.958" fill="#000000" d="M 1138.5,39.5 C 1145.84,39.3337 1153.17,39.5003 1160.5,40C 1178.45,61.4078 1196.29,82.9078 1214,104.5C 1214.5,82.8359 1214.67,61.1692 1214.5,39.5C 1223.17,39.5 1231.83,39.5 1240.5,39.5C 1240.5,76.5 1240.5,113.5 1240.5,150.5C 1233.16,150.666 1225.83,150.5 1218.5,150C 1200.55,128.592 1182.71,107.092 1165,85.5C 1164.5,107.164 1164.33,128.831 1164.5,150.5C 1155.83,150.5 1147.17,150.5 1138.5,150.5C 1138.5,113.5 1138.5,76.5 1138.5,39.5 Z"/>
  </g>
  <g transform="matrix(1, 0, 0, 1, -156.781939, 46.230557)">
    <path style="opacity:0.961" fill="#89d4a6" d="M 63.5,40.5 C 59.4979,42.6098 55.1646,43.9431 50.5,44.5C 54.5021,42.3902 58.8354,41.0569 63.5,40.5 Z"/>
  </g>
  <g transform="matrix(1, 0, 0, 1, -156.781939, 46.230557)">
    <path style="opacity:0.98" fill="#80d3a1" d="M 38.5,48.5 C 36.3826,50.6545 33.716,51.6545 30.5,51.5C 32.936,50.129 35.6027,49.129 38.5,48.5 Z"/>
  </g>
  <g transform="matrix(1, 0, 0, 1, -156.781939, 46.230557)">
    <path style="opacity:1" fill="#87d5a4" d="M 336.5,63.5 C 339.228,63.1706 341.562,63.8372 343.5,65.5C 342.504,65.4142 341.671,65.7476 341,66.5C 339.69,65.1031 338.19,64.1031 336.5,63.5 Z"/>
  </g>
  <g style="" transform="matrix(1.225508, 0, 0, 1.467401, -245.876041, 28.526928)">
    <path style="opacity:0.958" fill="#0fdc8d" d="M 433.5,66.5 C 467.687,66.3533 484.353,83.3533 483.5,117.5C 462.164,117.333 440.831,117.5 419.5,118C 425.792,131.002 436.125,136.002 450.5,133C 456.051,131.349 461.051,129.016 465.5,126C 468.965,130.467 472.798,134.633 477,138.5C 477.667,139.5 477.667,140.5 477,141.5C 467.497,150.339 456.164,154.672 443,154.5C 403.168,151.157 388.168,130.157 398,91.5C 405.604,77.1184 417.437,68.785 433.5,66.5 Z M 433.5,86.5 C 446.465,84.3093 455.132,89.3093 459.5,101.5C 446.167,102.833 432.833,102.833 419.5,101.5C 422.157,94.5129 426.824,89.5129 433.5,86.5 Z"/>
  </g>
  <g transform="matrix(1, 0, 0, 1, -156.781939, 46.230557)">
    <path style="opacity:1" fill="#77d59d" d="M 15.5,79.5 C 20.5969,79.4733 24.9302,81.1399 28.5,84.5C 23.9886,83.0689 19.6553,81.4022 15.5,79.5 Z"/>
  </g>
  <g transform="matrix(1, 0, 0, 1, -156.781939, 46.230557)">
    <path style="opacity:0.973" fill="#95d3aa" d="M 34.5,86.5 C 36.698,86.1201 38.3646,86.7868 39.5,88.5C 37.597,88.2041 35.9303,87.5375 34.5,86.5 Z"/>
  </g>
  <g transform="matrix(1, 0, 0, 1, -156.781939, 46.230557)">
    <path style="opacity:0.38" fill="#cfd0c4" d="M 288.5,97.5 C 289.919,96.5489 291.585,96.2155 293.5,96.5C 293.832,134.67 293.499,172.67 292.5,210.5C 292.5,172.833 292.5,135.167 292.5,97.5C 291.167,97.5 289.833,97.5 288.5,97.5 Z"/>
  </g>
  <g transform="matrix(1, 0, 0, 1, -156.781939, 46.230557)">
    <path style="opacity:1" fill="#72d49b" d="M 79.5,103.5 C 84.5969,103.473 88.9302,105.14 92.5,108.5C 87.9886,107.069 83.6553,105.402 79.5,103.5 Z"/>
  </g>
  <g transform="matrix(1, 0, 0, 1, -156.781939, 46.230557)">
    <path style="opacity:0.928" fill="#6ed29e" d="M 65.5,112.5 C 64.1667,112.5 62.8333,112.5 61.5,112.5C 61.5,129.167 61.5,145.833 61.5,162.5C 60.5034,145.675 60.1701,128.675 60.5,111.5C 62.4147,111.216 64.0813,111.549 65.5,112.5 Z"/>
  </g>
  <g transform="matrix(1, 0, 0, 1, -156.781939, 46.230557)">
    <path style="opacity:0.961" fill="#a3d2af" d="M 284.5,158.5 C 284.5,143.167 284.5,127.833 284.5,112.5C 282.473,112.338 280.473,112.505 278.5,113C 264.295,118.013 249.961,122.513 235.5,126.5C 249.29,121.402 263.29,116.569 277.5,112C 280.146,111.503 282.813,111.336 285.5,111.5C 285.83,127.342 285.496,143.009 284.5,158.5 Z"/>
  </g>
  <g transform="matrix(1, 0, 0, 1, -156.781939, 46.230557)">
    <path style="opacity:1" fill="#1adb8e" d="M 65.5,112.5 C 76.3075,116.322 86.9742,120.322 97.5,124.5C 98.4687,125.309 99.3021,126.309 100,127.5C 101.011,126.663 102.178,126.33 103.5,126.5C 119.408,131.054 135.074,136.054 150.5,141.5C 151.469,142.309 152.302,143.309 153,144.5C 154.011,143.663 155.178,143.33 156.5,143.5C 160.116,143.899 163.45,144.899 166.5,146.5C 169.799,149.046 173.132,149.046 176.5,146.5C 179.01,146.946 181.01,146.28 182.5,144.5C 183.391,143.89 184.391,143.557 185.5,143.5C 188.152,143.59 190.485,142.924 192.5,141.5C 206.533,135.932 220.867,130.932 235.5,126.5C 249.961,122.513 264.295,118.013 278.5,113C 280.473,112.505 282.473,112.338 284.5,112.5C 284.5,127.833 284.5,143.167 284.5,158.5C 284.677,163.805 283.51,168.805 281,173.5C 276.125,180.042 270.292,185.542 263.5,190C 244.944,199.463 225.278,204.963 204.5,206.5C 187.845,207.265 171.178,207.599 154.5,207.5C 145.379,206.942 136.379,205.609 127.5,203.5C 125.162,201.96 122.495,201.294 119.5,201.5C 113.155,200.496 107.155,198.496 101.5,195.5C 100.729,193.886 99.7286,192.386 98.5,191C 100.336,189.504 101.169,187.671 101,185.5C 100.15,186.424 99.15,186.424 98,185.5C 95.0219,189.229 91.8553,189.396 88.5,186C 89.5171,184.951 89.6838,183.784 89,182.5C 87.6124,183.554 86.1124,183.72 84.5,183C 81.9891,180.821 79.8224,178.321 78,175.5C 76.1267,176.089 74.46,175.422 73,173.5C 72.5357,174.094 72.369,174.761 72.5,175.5C 68.9416,173.446 65.7749,170.78 63,167.5C 61.9914,165.975 61.4914,164.308 61.5,162.5C 61.5,145.833 61.5,129.167 61.5,112.5C 62.8333,112.5 64.1667,112.5 65.5,112.5 Z"/>
  </g>
  <g transform="matrix(1, 0, 0, 1, -156.781939, 46.230557)">
    <path style="opacity:0.965" fill="#99d3ac" d="M 141.5,124.5 C 143.698,124.12 145.365,124.787 146.5,126.5C 144.597,126.204 142.93,125.537 141.5,124.5 Z"/>
  </g>
  <g transform="matrix(1, 0, 0, 1, -156.781939, 46.230557)">
    <path style="opacity:1" fill="#8bd6a6" d="M 97.5,124.5 C 99.7857,124.595 101.786,125.262 103.5,126.5C 102.178,126.33 101.011,126.663 100,127.5C 99.3021,126.309 98.4687,125.309 97.5,124.5 Z"/>
  </g>
  <g transform="matrix(1, 0, 0, 1, -156.781939, 46.230557)">
    <path style="opacity:0.961" fill="#9cd2ad" d="M 147.5,126.5 C 149.698,126.12 151.365,126.787 152.5,128.5C 150.597,128.204 148.93,127.537 147.5,126.5 Z"/>
  </g>
  <g transform="matrix(1, 0, 0, 1, -156.781939, 46.230557)">
    <path style="opacity:0.957" fill="#97d2ab" d="M 153.5,128.5 C 156.152,128.41 158.485,129.076 160.5,130.5C 157.848,130.59 155.515,129.924 153.5,128.5 Z"/>
  </g>
  <g transform="matrix(1, 0, 0, 1, -156.781939, 46.230557)">
    <path style="opacity:0.937" fill="#80d2a2" d="M 160.5,130.5 C 163.152,130.41 165.485,131.076 167.5,132.5C 164.848,132.59 162.515,131.924 160.5,130.5 Z"/>
  </g>
  <g transform="matrix(1, 0, 0, 1, -156.781939, 46.230557)">
    <path style="opacity:0.969" fill="#80d2a2" d="M 192.5,141.5 C 190.485,142.924 188.152,143.59 185.5,143.5C 187.515,142.076 189.848,141.41 192.5,141.5 Z"/>
  </g>
  <g transform="matrix(1, 0, 0, 1, -156.781939, 46.230557)">
    <path style="opacity:1" fill="#82d5a3" d="M 150.5,141.5 C 152.786,141.595 154.786,142.262 156.5,143.5C 155.178,143.33 154.011,143.663 153,144.5C 152.302,143.309 151.469,142.309 150.5,141.5 Z"/>
  </g>
  <g transform="matrix(1, 0, 0, 1, -156.781939, 46.230557)">
    <path style="opacity:0.961" fill="#9fd3ae" d="M 182.5,144.5 C 181.01,146.28 179.01,146.946 176.5,146.5C 178.302,145.542 180.302,144.875 182.5,144.5 Z"/>
  </g>
  <g transform="matrix(1, 0, 0, 1, -156.781939, 46.230557)">
    <path style="opacity:0.918" fill="#83d2a4" d="M 166.5,146.5 C 169.809,147.627 173.143,147.627 176.5,146.5C 173.132,149.046 169.799,149.046 166.5,146.5 Z"/>
  </g>
  <g transform="matrix(1, 0, 0, 1, -156.781939, 46.230557)">
    <path style="opacity:1" fill="#48d991" d="M 101.5,195.5 C 90.1767,191.167 80.5101,184.5 72.5,175.5C 72.369,174.761 72.5357,174.094 73,173.5C 74.46,175.422 76.1267,176.089 78,175.5C 79.8224,178.321 81.9891,180.821 84.5,183C 86.1124,183.72 87.6124,183.554 89,182.5C 89.6838,183.784 89.5171,184.951 88.5,186C 91.8553,189.396 95.0219,189.229 98,185.5C 99.15,186.424 100.15,186.424 101,185.5C 101.169,187.671 100.336,189.504 98.5,191C 99.7286,192.386 100.729,193.886 101.5,195.5 Z"/>
  </g>
  <g transform="matrix(1, 0, 0, 1, -156.781939, 46.230557)">
    <path style="opacity:0.784" fill="#a3d3b2" d="M 119.5,201.5 C 122.495,201.294 125.162,201.96 127.5,203.5C 124.572,203.435 121.905,202.768 119.5,201.5 Z"/>
  </g>
  <g transform="matrix(1, 0, 0, 1, -156.781939, 46.230557)">
    <path style="opacity:0.645" fill="#acd1b6" d="M 204.5,206.5 C 194.372,207.957 184.038,208.623 173.5,208.5C 166.991,208.5 160.658,208.166 154.5,207.5C 171.178,207.599 187.845,207.265 204.5,206.5 Z"/>
  </g>
  <g transform="matrix(1, 0, 0, 1, -156.781939, 46.230557)">
    <path style="opacity:0.969" fill="#91d2a9" d="M 307.5,262.5 C 308.738,264.214 309.405,266.214 309.5,268.5C 307.926,266.898 307.259,264.898 307.5,262.5 Z"/>
  </g>
  <g transform="matrix(1, 0, 0, 1, -156.781939, 46.230557)">
    <path style="opacity:0.808" fill="#97d2ac" d="M 311.5,277.5 C 312.952,279.848 313.618,282.514 313.5,285.5C 313.493,287.369 313.16,289.036 312.5,290.5C 312.533,286.131 312.2,281.798 311.5,277.5 Z"/>
  </g>
</svg>